<?xml version="1.0" encoding="UTF-8"?>
<!-- Created with Inkscape (http://www.inkscape.org/) -->
<svg width="198.8mm" height="76.881mm" version="1.1" viewBox="0 0 198.8 76.881" xmlns="http://www.w3.org/2000/svg">
 <g transform="translate(-5.5937 -43.132)">
  <g stroke-linecap="round" stroke-linejoin="round" stroke-width=".0059157">
   <path d="m111.31 37.686 72.824-1.3557-96.403 0.46906z" fill="#ffe498" stroke="#fff8db"/>
   <path d="m110.97 37.664 40.836 1.4948 31.988-2.8505z" fill="#ffe498" stroke="#ffe498"/>
   <path d="m139.22 39.306 13.048-0.16942-40.836-1.4948z" fill="#fff0b1" stroke="#fff0b1"/>
   <path d="m88.794 36.768 14.564 2.5699 9.0147-1.6833z" fill="#ffe28f" stroke="#ffde83"/>
   <path d="m72.149 41.154 17.335-4.4135-23.803 3.2963z" fill="#ffde83" stroke="#ffd371"/>
   <path d="m118.53 40.217 20.883-0.92512-27.788-1.6642z" fill="#fff0b1" stroke="#ffe09e"/>
   <path d="m-3.8795 38.381 70.588 1.6726 23.803-3.2963z" fill="#ffda6c" stroke="#ffda6c"/>
   <path d="m27.857 42.067 39.198-2.0672-70.588-1.6726z" fill="#ffda6c" stroke="#ffc147"/>
   <path d="m72.055 41.137 7.857 1.1663 9.4777-5.5798z" fill="#ffe478" stroke="#ffd371"/>
   <path d="m35.002 44.305 31.596-4.3635-39.198 2.0672z" fill="#ffda4d" stroke="#ffda4d"/>
   <path d="m72.193 41.016 3.875 5.08 3.982-3.9137z" fill="#ffd371" stroke="#ffdf73"/>
   <path d="m12.075 46.055 16.353-4.0474-31.39-3.7398z" fill="#ffd937" stroke="#ffc147"/>
   <path d="m151.21 39.129 28.346 2.0075 3.6424-4.858z" fill="#fff8d6" stroke="#fff8d6"/>
   <path d="m204.2 46.714 11.192-1.1085-33.138-9.4093z" fill="#fff9ec" stroke="#fffdf6"/>
   <path d="m72.697 46.512 3.4285-0.4223-3.875-5.08z" fill="#ffdf73" stroke="#ffdf73"/>
   <path d="m176.21 45.095 2.899 1.8903 0.12923-6.0065z" fill="#fff2d2" stroke="#fff2d2"/>
   <path d="m111.93 37.559 6.8307 7.3474 0.0735-4.7581z" fill="#ffeb9c" stroke="#ffeb9c"/>
   <path d="m117.21 47.406 2.3417-1.2516-0.87859-1.3943z" fill="#ffe69c" stroke="#ffe399"/>
   <path d="m34.892 44.257 16.787 3.2865 14.809-7.65z" fill="#ffda4d" stroke="#ffda4d"/>
   <path d="m51.434 47.544 9.9892-1.3383 4.8195-6.3116z" fill="#ffd765" stroke="#ffd15c"/>
   <path d="m119.53 46.242-0.80508-6.1524-0.0735 4.7581z" fill="#ffe69c" stroke="#ffe09e"/>
   <path d="m179.3 40.968-7.3382 6.7319 4.3099-2.6158z" fill="#fff8d6" stroke="#fff8d6"/>
   <path d="m85.689 48.833 3.5855-12.206-9.4777 5.5798z" fill="#ffe57b" stroke="#ffde83"/>
   <path d="m16.612 48.622 11.597-6.7071-16.353 4.0474z" fill="#ffc147" stroke="#ffc147"/>
   <path d="m65.927 39.909 6.9145 6.6195-0.44653-5.5023z" fill="#ffda6c" stroke="#ffdb70"/>
   <path d="m151.26 38.99 21.008 8.7394 7.3382-6.7319z" fill="#fff2cd" stroke="#fff2cd"/>
   <path d="m111.93 37.52 5.3676 9.9932 1.4631-2.6459z" fill="#ffe399" stroke="#ffe498"/>
   <path d="m118.51 49.992 1.0339-3.8959-2.3417 1.2516z" fill="#ffe39a" stroke="#ffe69c"/>
   <path d="m107.58 50.184 4.5815-12.703-9.0147 1.6833z" fill="#ffe38f" stroke="#ffe38f"/>
   <path d="m190.47 50.359 13.889-3.6992-21.947-10.518z" fill="#fff9ec" stroke="#fff3dd"/>
   <path d="m144.83 51.058 7.0322-12.117-13.048 0.16942z" fill="#ffe8b2" stroke="#ffedbd"/>
   <path d="m179.03 41 11.7 9.359-8.0579-14.217z" fill="#fff3dd" stroke="#fff3dd"/>
   <path d="m107.44 50.184 9.949-2.7101-5.3676-9.9932z" fill="#ffe38f" stroke="#ffe38f"/>
   <path d="m139.53 50.304 5.4019 0.75146-6.0161-11.948z" fill="#ffeaad" stroke="#ffeaad"/>
   <path d="m44.215 51.336 7.6792-3.9132-16.787-3.2865z" fill="#ffdb53" stroke="#ffdb53"/>
   <path d="m61.177 46.22 11.734 0.3079-6.9145-6.6195z" fill="#ffd765" stroke="#ffdb70"/>
   <path d="m178.9 46.936 11.829 3.3526-11.7-9.359z" fill="#fff8d4" stroke="#fff8d4"/>
   <path d="m71.864 49.975 4.2674-4.0116-3.4285 0.4223z" fill="#ffdf73" stroke="#ffdf73"/>
   <path d="m27.858 41.916 7.7956 6.6005-0.1935-4.3043z" fill="#ffc147" stroke="#ffd24c"/>
   <path d="m75.925 46.039 9.8742 2.7123-5.8922-6.626z" fill="#ffdf73" stroke="#ffdf73"/>
   <path d="m35.413 48.441 8.9145 2.8954-9.108-7.1997z" fill="#ffd24c" stroke="#ffd24c"/>
   <path d="m119.23 46.256 20.078-7.0775-20.883 0.92512z" fill="#fff0b1" stroke="#ffe69c"/>
   <path d="m61.177 46.076 10.895 3.8972 0.83887-3.5893z" fill="#ffd765" stroke="#ffd86e"/>
   <path d="m171.97 47.64 7.2089-0.72548-2.899-1.8903z" fill="#fff2cd" stroke="#fff2cd"/>
   <path d="m-0.85479 51.865 13.168-5.8954-15.037-7.7872z" fill="#ffb229" stroke="#ffd937"/>
   <path d="m190.35 50.18 10.279 1.7956 3.6104-5.4948z" fill="#fff3dd" stroke="#fff6e6"/>
   <path d="m157.63 52.222 14.749-4.5588-21.008-8.7394z" fill="#fff2cd" stroke="#fff1be"/>
   <path d="m44.083 51.265 5.5937 1.6168 2.0855-5.5301z" fill="#ffdb53" stroke="#ffdb53"/>
   <path d="m51.505 47.376 8.5375 5.2406 1.4517-6.5789z" fill="#ffcd62" stroke="#ffcd62"/>
   <path d="m71.842 49.916 5.7555 4.0302-1.4881-8.0418z" fill="#ffd86e" stroke="#ffd872"/>
   <path d="m117.22 47.278-0.2395 6.1567 1.5473-3.5124z" fill="#ffe197" stroke="#ffe399"/>
   <path d="m61.19 46.03 8.9832 7.0763 1.912-3.1791z" fill="#ffd765" stroke="#ffd765"/>
   <path d="m18.384 52.407 9.7556-10.549-11.597 6.7071z" fill="#ffc147" stroke="#ffc147"/>
   <path d="m77.414 53.947 8.3861-5.3295-9.8742-2.7123z" fill="#ffe57b" stroke="#ffd872"/>
   <path d="m144.65 51.041 13.291 1.181-6.2592-13.298z" fill="#ffe8b2" stroke="#fff1be"/>
   <path d="m80.438 54.996 5.3399-6.434-8.3861 5.3295z" fill="#fff574" stroke="#fff574"/>
   <path d="m85.392 48.833 18.15-9.6359-14.564-2.5699z" fill="#ffe57b" stroke="#ffe28f"/>
   <path d="m107.44 49.988 9.7095 3.4467 0.23951-6.1567z" fill="#ffe197" stroke="#ffe38f"/>
   <path d="m119.21 46.196 20.692 4.1189-0.61418-11.196z" fill="#ffeaad" stroke="#ffeaad"/>
   <path d="m10.682 55.742 6.1189-7.2851-4.7556-2.6598z" fill="#ffb632" stroke="#ffc03a"/>
   <path d="m59.787 52.609 10.435 0.49739-8.9832-7.0763z" fill="#ffcd62" stroke="#ffcd62"/>
   <path d="m23.593 56.045 4.52-14.24-9.7556 10.549z" fill="#ffd03e" stroke="#ffd03e"/>
   <path d="m103.26 39.05-3.014 17.195 7.4472-6.1752z" fill="#ffe28f" stroke="#ffdb86"/>
   <path d="m107.44 49.913 7.9571 5.8997 1.7524-2.4531z" fill="#fff195" stroke="#ffe38f"/>
   <path d="m10.655 55.703 7.9606-3.4435-1.8417-3.8416z" fill="#ffea3b" stroke="#ffea3b"/>
   <path d="m69.958 53.037 7.6675 0.8511-5.7555-4.0302z" fill="#ffd872" stroke="#ffd872"/>
   <path d="m49.471 52.882 10.623-0.28948-8.5375-5.2406z" fill="#ffcd62" stroke="#ffcd62"/>
   <path d="m35.116 55.097 9.2131-3.8796-8.9145-2.8954z" fill="#ffdb53" stroke="#ffc849"/>
   <path d="m85.392 48.686 15.136 7.5593 3.014-17.195z" fill="#ffdb86" stroke="#ffdb86"/>
   <path d="m-0.88201 51.692 11.805 4.0495 1.3633-9.9448z" fill="#ffb229" stroke="#ffb632"/>
   <path d="m23.403 56.045 12.316-7.6395-7.7956-6.6005z" fill="#ffd24c" stroke="#ffd03e"/>
   <path d="m115.64 56.894 1.3896-3.6012-1.7524 2.4531z" fill="#ffe197" stroke="#ffee94"/>
   <path d="m218.81 51.843-1.2331 6.2912 2.388-2.6828z" fill="#fffef8" stroke="#fffaf4"/>
   <path d="m23.403 55.949 12.017-0.86444 0.29855-6.775z" fill="#ffd03e" stroke="#ffd03e"/>
   <path d="m217.58 58.08 2.784 0.11936-0.39601-2.8022z" fill="#fffaf4" stroke="#fffaf4"/>
   <path d="m213.67 58.658 3.9874-0.53127 1.2331-6.2912z" fill="#fff9f0" stroke="#fff9f0"/>
   <path d="m214.86 45.289-1.1952 13.466 5.2205-6.8225z" fill="#fff9f0" stroke="#fffdf6"/>
   <path d="m27.079 58.783 8.3459-3.8412-12.017 0.86444z" fill="#ffc849" stroke="#ffda40"/>
   <path d="m203.88 46.397 9.9964 12.357 1.1952-13.466z" fill="#fff9ec" stroke="#fff9ec"/>
   <path d="m162.84 59.835 9.4451-12.414-14.749 4.5588z" fill="#fff2cd" stroke="#ffe3c0"/>
   <path d="m40.285 60.379 4.0434-9.2826-9.2131 3.8796z" fill="#ffdb53" stroke="#ffdb53"/>
   <path d="m37.73 60.869 2.6145-0.55429-5.1697-5.403z" fill="#ffdd49" stroke="#ffcd4c"/>
   <path d="m200.34 51.876 13.607 6.8623-9.9964-12.357z" fill="#fff9f0" stroke="#fff6e6"/>
   <path d="m118.19 49.989 21.726 0.22302-20.692-4.1189z" fill="#ffe39a" stroke="#ffeaad"/>
   <path d="m22.512 60.867 4.7039-2.1269-3.6712-2.9768z" fill="#ffcb3b" stroke="#ffcb3b"/>
   <path d="m13.485 61.099 5.1305-8.9759-7.9606 3.4435z" fill="#ffe033" stroke="#ffea3b"/>
   <path d="m-1.6391 61.888 1.0135-10.374-4.4424 8.7621z" fill="#ffb229" stroke="#ffb229"/>
   <path d="m213.69 58.512 2.6204 3.7141 1.3671-4.2453z" fill="#fffbf1" stroke="#fff9f0"/>
   <path d="m-0.86215 51.506 5.9265 10.918 5.8785-6.8681z" fill="#ffb229" stroke="#ffb229"/>
   <path d="m18.423 52.126 4.2029 8.7949 1.0327-5.1036z" fill="#ffcb3b" stroke="#ffcb3b"/>
   <path d="m62.69 62.489 7.5323-9.6182-10.435-0.49739z" fill="#ffde6b" stroke="#ffde6b"/>
   <path d="m59.897 52.371 2.4455 10.271 0.4572-0.15513z" fill="#ffd860" stroke="#ffcd62"/>
   <path d="m-1.7753 61.88 6.94 0.54343-5.9265-10.918z" fill="#ffb12a" stroke="#ffb12a"/>
   <path d="m40.129 60.379 9.6371-7.6658-5.5937-1.6168z" fill="#ffce58" stroke="#ffcd4c"/>
   <path d="m13.383 61.099 9.3334-0.18099-4.2029-8.7949z" fill="#ffcb3b" stroke="#ffcb3b"/>
   <path d="m213.99 63.385 2.337-1.184-2.6204-3.7141z" fill="#fffeef" stroke="#fffeef"/>
   <path d="m157.68 51.859 0.92838 11.576 4.3752-3.7202z" fill="#fff1be" stroke="#fffabb"/>
   <path d="m216.23 62.226 4.151-4.126-2.784-0.11936z" fill="#fffbf1" stroke="#fefff6"/>
   <path d="m218.08 63.758 2.3026-5.6821-4.151 4.126z" fill="#fefff6" stroke="#fefff6"/>
   <path d="m4.9368 62.365 8.7086-1.3356-2.8301-5.5324z" fill="#ffe033" stroke="#ffb12a"/>
   <path d="m69.958 52.829 3.5542 11.972 4.1134-11.12z" fill="#ffd66a" stroke="#ffd66a"/>
   <path d="m139.52 49.941 4.6917 14.501 0.71023-13.749z" fill="#ffeaad" stroke="#ffeaad"/>
   <path d="m26.988 58.753 10.901 2.1161-2.5551-5.9573z" fill="#ffdd49" stroke="#ffda40"/>
   <path d="m194.18 65.424 6.5046-13.702-10.279-1.7956z" fill="#fff6e6" stroke="#fff6e6"/>
   <path d="m100.13 56.084 15.404-0.27544-7.9571-5.8997z" fill="#ffdb86" stroke="#ffdb86"/>
   <path d="m73.416 64.788 7.1595-10.016-3.0461-1.1045z" fill="#fff574" stroke="#ffd66a"/>
   <path d="m158.99 64.437 3.972-4.8528-4.3752 3.7202z" fill="#ffe3c0" stroke="#fff0bb"/>
   <path d="m86.123 65.701-0.39495-17.297-5.3399 6.434z" fill="#ffe57b" stroke="#ffd475"/>
   <path d="m216.26 62.104-0.0699 4.1073 1.9184-2.5512z" fill="#fffdf0" stroke="#fffdf0"/>
   <path d="m213.99 63.288 2.267 2.9233 0.0699-4.1073z" fill="#fffeef" stroke="#fffeef"/>
   <path d="m62.596 62.447 11.086 2.3534-3.5542-11.972z" fill="#ffca61" stroke="#ffd66a"/>
   <path d="m89.64 66.74-4.0429-18.352 0.39495 17.297z" fill="#ffe57b" stroke="#ffe57b"/>
   <path d="m89.478 66.74 11.093-10.792-15.136-7.5593z" fill="#ffce78" stroke="#ffdb86"/>
   <path d="m100.12 55.986 15.767 0.8727-0.36282-1.1481z" fill="#ffdb86" stroke="#ffee94"/>
   <path d="m157.81 51.809-4.9929 15.055 5.9213-3.4792z" fill="#ffefb4" stroke="#ffefb4"/>
   <path d="m-2.4946 38.054-2.5733 22.445 4.4424-8.7621z" fill="#ffd12c" stroke="#ffd12c"/>
   <path d="m144.65 50.645 8.2986 16.236 4.9929-15.055z" fill="#ffe8b2" stroke="#ffe8b2"/>
   <path d="m144.03 64.394 9.0088 2.4866-8.2986-16.236z" fill="#ffefb4" stroke="#ffefb4"/>
   <path d="m159.75 65.846 3.2132-6.2826-3.972 4.8528z" fill="#ffe3c0" stroke="#ffeabb"/>
   <path d="m49.435 52.66 13.068 9.9812-2.4455-10.271z" fill="#ffce58" stroke="#ffd860"/>
   <path d="m190.51 49.898-0.53474 17.499 4.3088-2.0014z" fill="#fff8d7" stroke="#fff3dd"/>
   <path d="m100.12 55.864 14.037 8.9319 1.7299-8.0592z" fill="#ffe490" stroke="#ffdb86"/>
   <path d="m89.419 66.621 6.3757 0.61698 4.7169-11.409z" fill="#ffdf7e" stroke="#ffce78"/>
   <path d="m185.65 67.786 4.4451-0.3948 0.53473-17.499z" fill="#fff3d3" stroke="#fff3d3"/>
   <path d="m118.19 49.667 12.197 18.386 9.5293-18.163z" fill="#ffe39a" stroke="#ffe39a"/>
   <path d="m116.81 53.18 13.744 14.874-12.197-18.386z" fill="#ffd99e" stroke="#ffd99e"/>
   <path d="m178.9 46.588 6.8496 21.246 4.9798-17.894z" fill="#fff3d3" stroke="#fff8d4"/>
   <path d="m152.81 66.695 6.3244-2.3467-0.40313-1.1326z" fill="#ffefb4" stroke="#fff0bb"/>
   <path d="m159.7 65.807 5.7233 2.6448-2.5101-8.9274z" fill="#ffecbf" stroke="#ffeabb"/>
   <path d="m189.97 67.17 4.5115 0.08134-0.20275-2.0827z" fill="#fff8d7" stroke="#fffbdb"/>
   <path d="m159.03 64.33 0.73275 2.4846 0.0261-1.0548z" fill="#fff0bb" stroke="#fff2ba"/>
   <path d="m115.44 56.73 15.134 11.273-13.744-14.874z" fill="#ffee94" stroke="#ffd99e"/>
   <path d="m73.333 64.76 12.894 0.8472-5.7349-10.863z" fill="#ffd66a" stroke="#ffd66a"/>
   <path d="m130.14 68.051 14.221-3.6626-4.6917-14.501z" fill="#ffeaad" stroke="#ffd99e"/>
   <path d="m194.35 67.221 4.8269 2.0326-5.0296-4.1154z" fill="#fffbdb" stroke="#fffcdf"/>
   <path d="m159.67 66.77 5.7494 1.59-5.7233-2.6448z" fill="#fff2ba" stroke="#ffecbf"/>
   <path d="m199.15 69.454 1.475-17.817-6.5046 13.702z" fill="#fff6e6" stroke="#fff6e6"/>
   <path d="m152.8 66.676 7.0571 0.1379-0.73275-2.4846z" fill="#fff2ba" stroke="#fff2ba"/>
   <path d="m29.808 69.855 8.0816-9.1753-10.901-2.1161z" fill="#ffbe3f" stroke="#ffbe3f"/>
   <path d="m25.667 70.126-3.1327-9.4711 1.8657 9.1246z" fill="#ff953b" stroke="#ff953b"/>
   <path d="m25.644 70.157 1.5713-11.598-4.7039 2.1269z" fill="#ffda40" stroke="#ff953b"/>
   <path d="m25.558 70.157 4.3907-0.30649-2.8194-11.291z" fill="#ffbe3f" stroke="#ffbe3f"/>
   <path d="m24.667 70.3 0.97309-0.31192-1.267-0.34651z" fill="#ffc63a" stroke="#ffc63a"/>
   <path d="m198.88 69.454 15.082-10.955-13.607-6.8623z" fill="#fff9f0" stroke="#fffcdf"/>
   <path d="m198.88 69.354 15.365-6.0569-0.28337-4.8981z" fill="#fffcdf" stroke="#fffcdf"/>
   <path d="m115.44 56.635 10.902 14.207 4.2317-2.9348z" fill="#ffee94" stroke="#ffec99"/>
   <path d="m171.87 47.314 14.059 20.521-6.8497-21.246z" fill="#fff2cd" stroke="#fff2cd"/>
   <path d="m113.79 64.694 12.632 6.1482-10.902-14.207z" fill="#ffec99" stroke="#ffe490"/>
   <path d="m-5.0532 60 0.024934 11.826 3.4039-10.214z" fill="#ffda1d" stroke="#ffa821"/>
   <path d="m25.558 69.984 4.2137 0.5903 0.17702-0.89679z" fill="#ffc23f" stroke="#ff953b"/>
   <path d="m52.279 72.27 10.224-9.775-13.068-9.9812z" fill="#ffd860" stroke="#ffe553"/>
   <path d="m40.087 60.179 12.481 12.09-2.8441-19.756z" fill="#ffe553" stroke="#ffcd4c"/>
   <path d="m162.56 59.717 23.504 8.1065-14.059-20.521z" fill="#fff3d3" stroke="#fff3d3"/>
   <path d="m155.13 72.493 4.7308-5.7974-7.0571-0.1379z" fill="#ffebb4" stroke="#fff2ba"/>
   <path d="m113.79 64.551 9.3763 7.9201 3.2559-1.7719z" fill="#ffe596" stroke="#ffe596"/>
   <path d="m89.488 66.389 5.8838 5.7249 0.49194-5.1079z" fill="#ffce78" stroke="#ffe17c"/>
   <path d="m165.07 68.452 20.994-0.82088-23.504-8.1065z" fill="#ffecbf" stroke="#fff3d3"/>
   <path d="m13.355 60.841 11.199 8.9436-1.8657-9.1246z" fill="#ffe033" stroke="#fff13a"/>
   <path d="m95.498 67.238 18.754-2.4774-14.037-8.9319z" fill="#ffe490" stroke="#ffdf7e"/>
   <path d="m40.353 74.458-0.04625-14.424-2.6145 0.55429z" fill="#ffcd4c" stroke="#ffe547"/>
   <path d="m4.9368 62.098 6.5185 12.764 2.1901-14.1z" fill="#ffc52c" stroke="#ffc52c"/>
   <path d="m29.728 69.755 10.742 4.6943-2.6608-13.87z" fill="#ffe547" stroke="#ffbe3f"/>
   <path d="m-5.1297 71.803 10.344-9.6708-6.94-0.54343z" fill="#ffda1d" stroke="#ffb12a"/>
   <path d="m10.46 75.557 1.1508-0.36363-0.20738-0.54922z" fill="#ffcc2a" stroke="#ffc92c"/>
   <path d="m40.133 74.458 12.435-2.3336-12.481-12.09z" fill="#ffe553" stroke="#ffe547"/>
   <path d="m62.596 62.151 8.0494 13.077 3.037-10.724z" fill="#ffca61" stroke="#ffca61"/>
   <path d="m95.498 66.978 11.494 8.8849 7.2599-11.362z" fill="#ffdf7e" stroke="#ffdf7e"/>
   <path d="m62.64 62.136 5.221 14.109 2.8284-1.0314z" fill="#ffe860" stroke="#ffe860"/>
   <path d="m40.133 74.273 10.125 0.58523 2.3102-2.9188z" fill="#ffe547" stroke="#ffd150"/>
   <path d="m11.197 74.862 13.389-5.1561-11.199-8.9436z" fill="#fff13a" stroke="#ffc52c"/>
   <path d="m37.463 76.483 2.1808-0.57 0.71236-1.6988z" fill="#ffe244" stroke="#ffe244"/>
   <path d="m62.23 62.291 5.6782 13.954-5.221-14.109z" fill="#ffe860" stroke="#ffd860"/>
   <path d="m29.728 69.589 7.8492 6.9631 2.8932-2.2688z" fill="#ffbe3f" stroke="#ffbe3f"/>
   <path d="m184.64 75.513 5.4802-8.4948-4.4451 0.3948z" fill="#fff8d7" stroke="#fff8d7"/>
   <path d="m29.596 70.486 8.0262 6.0663-7.8492-6.9631z" fill="#ffe244" stroke="#ffc23f"/>
   <path d="m214.05 63.108-4.0526 14.147 6.3196-11.224z" fill="#fffeef" stroke="#fff9e6"/>
   <path d="m209.99 77.21 2.3951 0.13719 3.9246-11.361z" fill="#fff9e6" stroke="#fffce8"/>
   <path d="m4.9687 62.066 5.5751 13.677 0.94344-0.91284z" fill="#ffcc2a" stroke="#ffb12a"/>
   <path d="m95.119 72.05 11.986 3.777-11.494-8.8849z" fill="#fff785" stroke="#ffe17c"/>
   <path d="m198.88 69.164 11.313 8.09 4.0526-14.147z" fill="#fff9e6" stroke="#fff9e6"/>
   <path d="m11.538 75.163 4.0032 2.4516-4.2106-3.0009z" fill="#ffc92c" stroke="#ffdf2e"/>
   <path d="m15.408 77.689 9.1786-8.1569-13.389 5.1561z" fill="#ffdf2e" stroke="#fff13a"/>
   <path d="m25.56 69.868 2.3824 8.1853 1.8313-7.595z" fill="#ffcf3a" stroke="#ff953b"/>
   <path d="m24.628 70.18 3.3555 7.8733-2.3824-8.1853z" fill="#ffcf3a" stroke="#ffc63a"/>
   <path d="m155.01 72.491 10.48-4.2073-5.7493-1.59z" fill="#ffebb4" stroke="#ffecbf"/>
   <path d="m15.342 77.689 9.4725-7.4985-0.29393-0.65842z" fill="#ffdf2e" stroke="#ffc63a"/>
   <path d="m172.8 78.554 13.231-11.192-20.994 0.82088z" fill="#fff3d3" stroke="#ffefc2"/>
   <path d="m-5.2108 71.737 15.919 4.006-5.5751-13.677z" fill="#ffda1d" stroke="#ffda1d"/>
   <path d="m-4.967 72.908 15.675 2.6938-15.919-4.006z" fill="#ffcc2a" stroke="#ffce1d"/>
   <path d="m155.01 72.375 9.5637 6.4051 0.91652-10.612z" fill="#ffebb4" stroke="#ffebb4"/>
   <path d="m172.68 78.554 12.196-3.0918 1.0351-8.1z" fill="#ffeecf" stroke="#ffeecf"/>
   <path d="m52.155 72.064 15.903 4.1786-5.6782-13.954z" fill="#ffe553" stroke="#ffe553"/>
   <path d="m144.48 79.551 8.5582-13.06-9.0088-2.4866z" fill="#ffe2a8" stroke="#ffefb4"/>
   <path d="m144.44 79.515 10.885-7.1252-2.3263-5.9353z" fill="#ffe2a8" stroke="#ffebb4"/>
   <path d="m155.24 72.297-5.5596 7.5581 3.046-1.5827z" fill="#fff1ac" stroke="#fff1ac"/>
   <path d="m144.44 79.422 5.3249 0.43293 5.5596-7.5581z" fill="#ffe2a8" stroke="#ffe2a8"/>
   <path d="m164.32 78.78 8.6792-0.24155-7.7626-10.371z" fill="#fff3bb" stroke="#ffefc2"/>
   <path d="m95.331 71.908-2.555 8.4204 1.8919-0.76149z" fill="#ffdc76" stroke="#ffe17c"/>
   <path d="m27.791 78.045 9.8575-1.5286-8.0262-6.0663z" fill="#ffe244" stroke="#ffe244"/>
   <path d="m-4.9705 72.826 11.64 6.9855 4.0353-4.2917z" fill="#ffce1d" stroke="#ffce1d"/>
   <path d="m15.342 77.631 6.2963 3.348 3.1762-10.846z" fill="#ffdf2e" stroke="#ffc233"/>
   <path d="m21.498 80.979 6.5317-2.9731-3.3555-7.8733z" fill="#ffcf3a" stroke="#ffc233"/>
   <path d="m202.62 81.131 7.6322-4.0229-11.313-8.09z" fill="#fff5dd" stroke="#fff5dd"/>
   <path d="m70.34 75.194 15.931-9.8767-12.894-0.8472z" fill="#ffd663" stroke="#ffd475"/>
   <path d="m106.69 75.863 16.636-3.4422-9.3763-7.9201z" fill="#ffe596" stroke="#ffe596"/>
   <path d="m130.14 67.666 14.672 11.884-0.45056-15.547z" fill="#ffe2a8" stroke="#ffd99e"/>
   <path d="m51.017 79.634 1.4029-7.7654-2.3102 2.9188z" fill="#ffe553" stroke="#ffe553"/>
   <path d="m172.7 78.396 8.0401 2.71 4.1558-5.8017z" fill="#ffefc2" stroke="#ffeac9"/>
   <path d="m16.972 80.938 4.7126-0.06906-6.2963-3.348z" fill="#ffc233" stroke="#ffcd2e"/>
   <path d="m46.383 81.636 4.7099-2.0743-0.90728-4.8466z" fill="#ffd64a" stroke="#fffd4f"/>
   <path d="m40.166 74.138 6.3222 7.5062 3.8026-6.921z" fill="#ffe547" stroke="#ffe547"/>
   <path d="m184.57 75.513 9.9917-8.4135-4.5115-0.08134z" fill="#ffeecf" stroke="#ffeecf"/>
   <path d="m39.52 75.837 7.0345 5.8074-6.3222-7.5062z" fill="#ffbe46" stroke="#ffd64a"/>
   <path d="m89.495 66.266 3.3288 14.145 2.555-8.4204z" fill="#ffce78" stroke="#ffce78"/>
   <path d="m125.18 82.089-2.1129-9.8773-1.1572 7.388z" fill="#ffe596" stroke="#ffe894"/>
   <path d="m10.401 75.518 5.154 2.088-4.0032-2.4516z" fill="#ffcc2a" stroke="#ffdf2e"/>
   <path d="m125.15 82.115 1.143-11.649-3.2559 1.7719z" fill="#ffec99" stroke="#ffec99"/>
   <path d="m94.465 79.578 12.649-3.882-11.986-3.777z" fill="#fff785" stroke="#fff785"/>
   <path d="m106.69 75.69 15.479 3.9458 1.1572-7.388z" fill="#fff092" stroke="#fff092"/>
   <path d="m123.07 83.166 2.1152-1.2022-3.2701-2.4893z" fill="#ffe894" stroke="#ffe894"/>
   <path d="m152.55 78.289 12.077 0.42974-9.5637-6.4051z" fill="#fff0af" stroke="#fff3bb"/>
   <path d="m110.63 82.183 11.552-2.6353-15.479-3.9458z" fill="#fff092" stroke="#ffe887"/>
   <path d="m131.86 83.531-1.4691-15.978-4.2317 2.9348z" fill="#ffd99e" stroke="#ffe89a"/>
   <path d="m125.03 82.095 6.8437 1.3938-5.7007-13.043z" fill="#ffe89a" stroke="#ffe894"/>
   <path d="m23.548 83.565 4.4814-5.7139-6.5317 2.9731z" fill="#ffcf3a" stroke="#ffaa34"/>
   <path d="m27.791 77.875 7.7167 5.6233 2.1407-7.152z" fill="#ffcf3a" stroke="#ffbf3f"/>
   <path d="m23.518 83.565 4.2137-0.25879 0.26773-5.4551z" fill="#ffd538" stroke="#ffaa34"/>
   <path d="m85.938 65.227 6.9768 15.2-3.3288-14.145z" fill="#ffdc76" stroke="#ffdc76"/>
   <path d="m68.988 83.863 1.6249-8.9556-2.8284 1.0314z" fill="#ffd663" stroke="#ffd663"/>
   <path d="m131.61 83.531 13.203-4.0933-14.672-11.884z" fill="#ffe2a8" stroke="#ffe2a8"/>
   <path d="m71.177 84.603-0.58952-9.7062-1.6249 8.9556z" fill="#ffd560" stroke="#ffd560"/>
   <path d="m184.5 75.512 14.819-6.3808-4.8269-2.0326z" fill="#ffeecf" stroke="#ffeecf"/>
   <path d="m52.155 71.793 8.7562 12.99 7.1463-8.8115z" fill="#ffe553" stroke="#ffc057"/>
   <path d="m6.7076 81.634 3.8275-6.1805-4.0353 4.2917z" fill="#ffcc2a" stroke="#ff9125"/>
   <path d="m50.877 79.558 10.159 5.2247-8.7562-12.99z" fill="#ffc057" stroke="#fffd4f"/>
   <path d="m6.6295 81.634 8.9815-4.0925-5.154-2.088z" fill="#ffdf2e" stroke="#ffdf2e"/>
   <path d="m46.379 81.521 5.0113 3.0348-0.3014-5.1091z" fill="#ffd64a" stroke="#ffb74e"/>
   <path d="m48.564 85.061 2.8261-0.54332-5.0113-3.0348z" fill="#ffb54b" stroke="#ffb54b"/>
   <path d="m48.532 85.012 1.4632 0.31463 1.3628-0.85795z" fill="#ffb54b" stroke="#ffc84c"/>
   <path d="m27.558 83.308 7.9845 0.16824-7.7167-5.6233z" fill="#ffd538" stroke="#ffd538"/>
   <path d="m144.52 79.234 3.7954 6.1713 1.5295-5.7383z" fill="#ffe2a8" stroke="#ffe2a8"/>
   <path d="m191.38 85.67 7.9369-16.719-14.819 6.3808z" fill="#fffcdf" stroke="#fff5d1"/>
   <path d="m35.364 83.507 4.3216-7.722-2.1808 0.57z" fill="#ffbe46" stroke="#ffbf3f"/>
   <path d="m60.766 84.722 8.3499-0.88723-1.2036-7.9242z" fill="#ffe05f" stroke="#ffe05f"/>
   <path d="m191.23 85.67 11.617-4.6064-3.6803-12.113z" fill="#fff5dd" stroke="#fff5d1"/>
   <path d="m191.23 85.483 5.4636 0.68522 6.1537-5.2916z" fill="#fff5d1" stroke="#fff2d6"/>
   <path d="m182.43 84.937 2.3488-9.6894-4.1558 5.8017z" fill="#fff2c9" stroke="#fff2c9"/>
   <path d="m6.6064 81.603 10.565-0.67542-1.5837-3.417z" fill="#ffcd2e" stroke="#ffcd2e"/>
   <path d="m121.97 79.427-2.0489 6.9607 3.2037-3.2692z" fill="#ffe28e" stroke="#ffe28e"/>
   <path d="m204.77 86.019 5.4304-9.1028-7.6322 4.0229z" fill="#fff9e6" stroke="#fffcde"/>
   <path d="m18.75 86.9 2.9113-6.1687-4.7126 0.06906z" fill="#ffc233" stroke="#ffc233"/>
   <path d="m182.3 84.928 9.2305 0.6491-6.8817-10.338z" fill="#fff2c9" stroke="#fff5d1"/>
   <path d="m35.261 83.507 11.356-1.9146-7.0345-5.8074z" fill="#ffbf3f" stroke="#ffd64a"/>
   <path d="m18.694 86.9 4.9616-3.4279-2.0503-2.7408z" fill="#ffe32e" stroke="#ffe32e"/>
   <path d="m51.178 84.554 9.8577 0.11558-10.159-5.2247z" fill="#ffc057" stroke="#ffc057"/>
   <path d="m70.34 74.998 11.784 12.596 4.1473-22.472z" fill="#ffd663" stroke="#ffd86a"/>
   <path d="m81.851 87.594 11.124-7.2728-6.9768-15.2z" fill="#ffd86a" stroke="#ffdc76"/>
   <path d="m110.57 82.062 9.5032 4.3254 2.0488-6.9607z" fill="#ffe887" stroke="#ffe887"/>
   <path d="m-5.3574 87.145 12.092-7.4418-11.64-6.9855z" fill="#ffa825" stroke="#ffb818"/>
   <path d="m164.32 78.489 4.7202 9.5704 3.959-9.8119z" fill="#ffedbb" stroke="#ffedbb"/>
   <path d="m68.96 83.684 2.3685 3.2961-0.15414-2.5455z" fill="#ffd75f" stroke="#ffe05f"/>
   <path d="m144.54 79.195 0.14227 8.9032 3.6531-2.7319z" fill="#ffe2a8" stroke="#ffe2a8"/>
   <path d="m70.99 84.561 11.195 2.8895-11.784-12.596z" fill="#ffd560" stroke="#ffd560"/>
   <path d="m1.6966 88.186 4.2798-1.1411 0.85867-5.5995z" fill="#ffe822" stroke="#ffee1e"/>
   <path d="m6.6273 79.584-4.9306 8.6293 5.1385-6.7406z" fill="#ffee1e" stroke="#ffa825"/>
   <path d="m-5.3574 87.026 7.1613 1.1875 4.9306-8.6293z" fill="#ffb818" stroke="#ffb818"/>
   <path d="m150.17 87.894-0.38416-8.2698-1.5295 5.7383z" fill="#fff1ac" stroke="#fff1ac"/>
   <path d="m196.58 86.169 8.3555-0.21168-2.2018-5.0799z" fill="#fff2d6" stroke="#fff2d6"/>
   <path d="m210.05 76.871 1.8888 12.185 0.50629-12.047z" fill="#fff9e6" stroke="#fff9e4"/>
   <path d="m150.11 87.917 2.6618-9.8525-3.046 1.5827z" fill="#fff2a9" stroke="#fff0af"/>
   <path d="m204.71 85.974 7.3192 3.0817-1.8888-12.185z" fill="#fffcde" stroke="#fff9e4"/>
   <path d="m11.471 89.983 5.7006-9.2297-10.565 0.67542z" fill="#ffcd2e" stroke="#ffcd2e"/>
   <path d="m5.8433 87.019 5.7233 2.9548-4.8646-8.5543z" fill="#ffb726" stroke="#ffb726"/>
   <path d="m51.174 84.401 5.9942 5.5373 3.8635-5.4217z" fill="#ffe451" stroke="#ffb74e"/>
   <path d="m81.851 87.347 9.3883 1.7204 1.7357-8.9932z" fill="#ffc171" stroke="#ffc171"/>
   <path d="m11.374 89.983 7.5019-3.1301-1.8013-6.0996z" fill="#ffe32e" stroke="#ffe32e"/>
   <path d="m144.65 88.008 5.5668-0.20047-1.9137-2.5315z" fill="#ffe1a5" stroke="#ffe1a5"/>
   <path d="m186.71 90.764 4.8233-5.4065-9.2305-0.6491z" fill="#fff5d1" stroke="#ffefcb"/>
   <path d="m41.179 90.924 5.4387-9.527-11.356 1.9146z" fill="#ffd64a" stroke="#ffc942"/>
   <path d="m42.744 90.939 5.9152-5.9649-2.1852-3.5781z" fill="#ffb54b" stroke="#ffb54b"/>
   <path d="m41.092 90.923 1.7087 0.01593 3.73-9.543z" fill="#ffe443" stroke="#ffe443"/>
   <path d="m131.58 83.288 13.345 4.8099-0.14227-8.9032z" fill="#ffe89a" stroke="#ffe1a5"/>
   <path d="m71.135 86.965 11.04 0.34403-11.195-2.8895z" fill="#ffd86a" stroke="#ffd86a"/>
   <path d="m94.408 79.484 16.576 2.6992-3.927-6.5812z" fill="#ffe887" stroke="#ffca79"/>
   <path d="m36.004 89.773 5.2536 1.1224-5.9174-7.6124z" fill="#ffc942" stroke="#ffc942"/>
   <path d="m91.075 89.079 3.6276-9.7546-1.8919 0.76149z" fill="#ffc171" stroke="#ffc171"/>
   <path d="m168.86 88.06 11.999-7.1019-8.0401-2.71z" fill="#ffeac9" stroke="#ffeac9"/>
   <path d="m27.558 83.102 4.0654 8.8682 3.919-8.7z" fill="#ffd538" stroke="#ffb638"/>
   <path d="m31.555 91.967 4.5828-2.21-0.66374-6.49z" fill="#ffc33e" stroke="#ffb638"/>
   <path d="m155.58 91.967-2.8563-13.962-2.6618 9.8525z" fill="#ffe4ad" stroke="#fff0af"/>
   <path d="m155.4 91.967 9.221-13.533-12.077-0.42974z" fill="#fff3bb" stroke="#fff3bb"/>
   <path d="m191.86 92.118 4.917-6.1052-5.4636-0.68522z" fill="#fffacf" stroke="#fffacf"/>
   <path d="m168.83 88.02 13.806-3.2143-1.807-3.8876z" fill="#ffedbb" stroke="#ffedbb"/>
   <path d="m186.64 90.734 5.3699 1.3839-0.5466-6.7904z" fill="#ffefcb" stroke="#fffacf"/>
   <path d="m119.96 86.192-0.65567 6.5126 1.6908-1.1267z" fill="#ffe28e" stroke="#fff68b"/>
   <path d="m49.887 85.259 7.357 4.6793-5.9942-5.5373z" fill="#ffc84c" stroke="#ffc84c"/>
   <path d="m119.31 92.626 1.7536-0.92276-0.0628-0.20389z" fill="#fff68b" stroke="#fff68b"/>
   <path d="m84.182 92.799 7.0819-3.8933-9.3883-1.7204z" fill="#ffc171" stroke="#ffc171"/>
   <path d="m120.96 91.641 2.1686-8.6551-3.2037 3.2692z" fill="#ffdf92" stroke="#ffdf92"/>
   <path d="m95.806 93.704-1.1199-14.449-3.6276 9.7546z" fill="#ffca79" stroke="#ffd674"/>
   <path d="m155.29 91.961 13.941-3.9624-4.7202-9.5704z" fill="#ffe4ad" stroke="#ffedbb"/>
   <path d="m34.18 94.277 1.9581-4.6492-4.5828 2.21z" fill="#ffde3a" stroke="#ffde3a"/>
   <path d="m122.95 83.127 8.959 0.19161-6.8437-1.3938z" fill="#ffdf92" stroke="#ffe89a"/>
   <path d="m98.489 94.812-3.8965-15.572 1.1199 14.449z" fill="#ffd376" stroke="#ffca79"/>
   <path d="m60.732 84.572 10.718 2.4089-2.3685-3.2961z" fill="#ffd75f" stroke="#ffc057"/>
   <path d="m155.29 91.812 12.22 0.6328 1.7216-4.5952z" fill="#ffefb8" stroke="#ffe4ad"/>
   <path d="m98.305 94.812 12.68-12.873-16.576-2.6992z" fill="#ffd376" stroke="#ffe887"/>
   <path d="m136.93 95.554 8.0021-7.627-13.345-4.8099z" fill="#ffe1a5" stroke="#ffe1a5"/>
   <path d="m23.463 83.36 8.2791 8.6095-4.0655-8.8682z" fill="#ffaa34" stroke="#ffaa34"/>
   <path d="m120.81 91.641 11.128-8.4635-8.959-0.19161z" fill="#ffe68d" stroke="#ffe68d"/>
   <path d="m23.463 83.326 6.8116 10.707 1.4675-2.0973z" fill="#ffdd36" stroke="#ffdd36"/>
   <path d="m42.723 90.887 7.3785-5.6503-1.4632-0.31463z" fill="#ffe443" stroke="#ffc84c"/>
   <path d="m30.137 93.903 4.0921 0.3419-2.6246-2.4393z" fill="#ffde3a" stroke="#ffde3a"/>
   <path d="m160.08 95.665 7.4579-3.326-12.22-0.63281z" fill="#ffefb8" stroke="#ffe9b0"/>
   <path d="m110.6 81.929 8.8475 10.838 0.65568-6.5126z" fill="#fff68b" stroke="#fff68b"/>
   <path d="m168.83 87.845 8.9116 8.1667 4.8945-11.381z" fill="#ffedc1" stroke="#ffedc1"/>
   <path d="m60.732 84.44 8.65 10.583 2.0684-8.1744z" fill="#ffc55b" stroke="#ffc55b"/>
   <path d="m91.059 88.83 2.2012 7.3616 2.5462-2.6677z" fill="#ffe771" stroke="#ffc171"/>
   <path d="m90.39 96.237 2.9177-0.04616-2.2012-7.3616z" fill="#ffe16e" stroke="#ffe771"/>
   <path d="m14.29 96.146 4.5855-9.4734-7.5019 3.1301z" fill="#ffd327" stroke="#ffe32e"/>
   <path d="m84.149 92.722 6.3654 3.5144 0.7165-7.4077z" fill="#ffd26a" stroke="#ffe16e"/>
   <path d="m177.55 96.011 9.3016-5.3255-4.4072-6.0556z" fill="#ffefcb" stroke="#ffedc1"/>
   <path d="m125.11 96.178-4.1926-4.732 0.0628 0.20389z" fill="#ffe68d" stroke="#ffe68d"/>
   <path d="m125 96.302 6.935-13.196-11.128 8.4635z" fill="#ffe89a" stroke="#ffe89a"/>
   <path d="m18.595 86.754 11.773 7.2789-6.8116-10.707z" fill="#ffdd36" stroke="#ffe32e"/>
   <path d="m34.065 94.277 7.2118-3.5268-5.2536-1.1224z" fill="#ffc942" stroke="#ffde3a"/>
   <path d="m194.79 96.658 1.9848-10.722-4.917 6.1052z" fill="#fff2d6" stroke="#fff7d0"/>
   <path d="m56.955 89.861 12.514 5.1616-8.65-10.583z" fill="#ffc55b" stroke="#ffc55b"/>
   <path d="m167.2 92.393 10.633 3.5716-8.9116-8.1667z" fill="#ffedc1" stroke="#ffefb8"/>
   <path d="m119.25 92.57 5.8833 3.6053-4.1297-4.5281z" fill="#ffe18f" stroke="#fff68b"/>
   <path d="m124.87 96.302 12.278-0.75866-5.3427-12.437z" fill="#ffe18f" stroke="#ffe18f"/>
   <path d="m56.955 89.726 7.1324 9.062 5.3811-3.9004z" fill="#ffe451" stroke="#ffe451"/>
   <path d="m93.187 96.123 5.3229-1.5441-2.7766-1.1236z" fill="#ffe771" stroke="#ffd376"/>
   <path d="m3.2438 99.39 2.7452-12.593-4.2798 1.1411z" fill="#ffd21b" stroke="#ffd21b"/>
   <path d="m194.62 96.661 10.34-10.934-8.3555 0.21168z" fill="#fff7d0" stroke="#fffcde"/>
   <path d="m140.32 99.437 4.5352-11.638-8.0021 7.627z" fill="#ffe1a5" stroke="#ffe1a5"/>
   <path d="m3.1381 99.39 8.4685-9.6381-5.7233-2.9548z" fill="#ffb726" stroke="#ffb726"/>
   <path d="m69.095 94.988 13.109-7.8304-11.04-0.34403z" fill="#ffc55b" stroke="#ffd86a"/>
   <path d="m57.592 99.839 6.5735-1.0667-7.1324-9.062z" fill="#ffe54e" stroke="#ffe54e"/>
   <path d="m69.061 94.983 15.415-2.2167-2.3064-5.6137z" fill="#ffc55b" stroke="#ffc55b"/>
   <path d="m42.616 90.883 14.735-0.97093-7.357-4.6793z" fill="#ffe451" stroke="#ffe451"/>
   <path d="m217.59 97.188-5.249-20.302-0.50628 12.047z" fill="#fffce8" stroke="#fff9e6"/>
   <path d="m3.0956 99.347 11.385-3.2948-2.9164-6.3433z" fill="#ffd21b" stroke="#ffd327"/>
   <path d="m14.076 96.146 16.359-2.1945-11.773-7.2789z" fill="#ffdd36" stroke="#ffdd36"/>
   <path d="m-5.3079 86.751 8.696 12.639-1.5346-11.452z" fill="#ffb818" stroke="#ffd21b"/>
   <path d="m189.23 102.31 5.6225-5.8288-2.9322-4.6171z" fill="#fff7d0" stroke="#fff1c9"/>
   <path d="m179.52 100.73 7.3275-10.2-9.3016 5.3255z" fill="#ffefcb" stroke="#ffefcb"/>
   <path d="m186.64 90.503 2.6796 11.83 2.6903-10.446z" fill="#ffefcb" stroke="#ffefcb"/>
   <path d="m136.91 95.29 2.995 5.704 0.4719-1.693z" fill="#ffe59b" stroke="#ffe59b"/>
   <path d="m98.119 94.772 21.527-2.0349-8.8475-10.838z" fill="#ffd376" stroke="#ffd376"/>
   <path d="m212.33 77.384 5.843-13.912-1.9184 2.5512z" fill="#fffce8" stroke="#fffbf3"/>
   <path d="m179.45 100.7 10.007 1.6302-2.6796-11.83z" fill="#ffefc1" stroke="#fff1c9"/>
   <path d="m42.608 90.681 15.294 9.1577-0.55893-10.129z" fill="#ffe443" stroke="#ffe54e"/>
   <path d="m140.18 99.44 10.102-11.838-5.5668 0.20047z" fill="#ffe89c" stroke="#fff2a9"/>
   <path d="m140.1 99.44 15.62-7.7285-5.5182-4.1099z" fill="#ffe89c" stroke="#ffe89c"/>
   <path d="m94.409 104.2 4.1013-9.7557-5.3229 1.5441z" fill="#fff26f" stroke="#ffd376"/>
   <path d="m90.372 96.011 4.1393 8.1654-1.2216-8.2116z" fill="#fff26f" stroke="#fff26f"/>
   <path d="m49.242 105.4 8.6597-5.6625-15.294-9.1577z" fill="#ffd944" stroke="#ffe54e"/>
   <path d="m167.2 92.186 5.013 13.204 5.6201-9.6329z" fill="#ffefb8" stroke="#ffefb8"/>
   <path d="m69.061 94.745 10.047 10.738 5.3678-12.955z" fill="#ffc55b" stroke="#ffc55b"/>
   <path d="m189.22 102.2 6.5082 3.0224-0.88571-8.8511z" fill="#fff1c9" stroke="#fff1c9"/>
   <path d="m172.12 105.34 7.5943-4.7588-1.9742-4.8741z" fill="#ffe8b8" stroke="#ffe8b8"/>
   <path d="m3.0956 99.193 11.279 4.1892 0.10588-7.484z" fill="#ffd21b" stroke="#ffd024"/>
   <path d="m194.52 96.661 17.659-7.8522-7.3192-3.0817z" fill="#fff9e4" stroke="#fff7d0"/>
   <path d="m195.58 105.21 4.7308 1.1074-5.6166-9.9585z" fill="#fff4ce" stroke="#fff3d2"/>
   <path d="m72.064 106.44 7.1233-1.0047-10.047-10.738z" fill="#ffe860" stroke="#ffc159"/>
   <path d="m63.94 98.598 8.3052 7.8425-2.9241-11.743z" fill="#ffe055" stroke="#ffe055"/>
   <path d="m211.85 88.617-0.6628 17.905 6.4181-9.6508z" fill="#fff9dc" stroke="#fff9dc"/>
   <path d="m172.12 105.26 6.5888 0.804 1.0054-5.5628z" fill="#fff2be" stroke="#fff2be"/>
   <path d="m78.87 105.48 11.733-9.4405-6.3654-3.5144z" fill="#ffe16e" stroke="#ffe16e"/>
   <path d="m200.13 106.43 12.043-17.811-17.659 7.8522z" fill="#fff3d2" stroke="#fff9e4"/>
   <path d="m5.1032 106.54 9.2729-3.2538-11.279-4.1891z" fill="#ffd024" stroke="#ffbd1a"/>
   <path d="m159.94 95.512 12.471 9.8785-5.013-13.204z" fill="#ffe9b0" stroke="#ffe8b8"/>
   <path d="m200.05 106.43 11.38 0.0945 0.66279-17.905z" fill="#fff9dc" stroke="#fff3d2"/>
   <path d="m104.52 107.34 15.13-14.951-21.527 2.0349z" fill="#fff68b" stroke="#ffdb78"/>
   <path d="m217.57 97.39 0.59402-34.214-5.843 13.912z" fill="#fff9e6" stroke="#fff9e6"/>
   <path d="m94.298 104.15 10.498 3.1605-6.3969-12.916z" fill="#ffdb78" stroke="#ffdb78"/>
   <path d="m41.05 90.569 8.3434 14.836-6.6347-14.82z" fill="#ffd944" stroke="#ffc942"/>
   <path d="m13.972 103.41 16.465-9.6785-16.359 2.1945z" fill="#ffd024" stroke="#ffdd36"/>
   <path d="m33.943 94.096 15.555 11.309-8.3434-14.836z" fill="#ffd944" stroke="#ffd944"/>
   <path d="m178.46 106.06 11.013-3.9326-10.007-1.6302z" fill="#fff1c9" stroke="#fff1c9"/>
   <path d="m30.131 93.646 4.513 15.87-0.42092-15.528z" fill="#ffdd36" stroke="#ffc835"/>
   <path d="m124.82 96.049 15.273 4.9453-2.995-5.704z" fill="#ffe59b" stroke="#ffe59b"/>
   <path d="m78.809 105.43 15.873-1.275-4.1393-8.1654z" fill="#ffe860" stroke="#ffe860"/>
   <path d="m34.364 109.51 15.134-4.2183-15.555-11.309z" fill="#ffd944" stroke="#ffd944"/>
   <path d="m174.7 111.74 4.0194-5.8334-6.5888-0.804z" fill="#fff2be" stroke="#fff2be"/>
   <path d="m34.358 109.35 13.415-0.706 1.7188-3.5123z" fill="#ffd341" stroke="#ffd341"/>
   <path d="m148.59 112.09-8.3732-13.014-0.47189 1.693z" fill="#ffe89c" stroke="#ffe89c"/>
   <path d="m127.36 111.68 12.732-10.856-15.273-4.9453z" fill="#ffe59b" stroke="#ffdd8c"/>
   <path d="m148.48 112.2 7.2469-20.743-15.62 7.7285z" fill="#ffe4ad" stroke="#ffe4ad"/>
   <path d="m148.29 112.2 12.009-16.784-4.7617-3.9588z" fill="#ffe79f" stroke="#ffe9b0"/>
   <path d="m148.29 112.15 8.3484-0.30932 3.6602-16.475z" fill="#ffe79f" stroke="#ffeaa7"/>
   <path d="m-3.8319 112.71 9.1746-6.2572-2.006-7.4429z" fill="#ffbd1a" stroke="#ffbd1a"/>
   <path d="m72.021 106.18 5.3955 7.1332 1.7278-8.1379z" fill="#ffc65c" stroke="#ffc159"/>
   <path d="m156.33 111.84 16.131-6.596-12.471-9.8785z" fill="#ffeaa7" stroke="#ffe8b8"/>
   <path d="m13.906 103.32 20.978 6.1911-4.513-15.87z" fill="#ffc835" stroke="#ffd024"/>
   <path d="m-5.3079 86.552 1.5274 26.339 7.1685-13.7z" fill="#ffb818" stroke="#ffc20f"/>
   <path d="m-4.9795 71.425-0.20835 15.74 0.45223-14.427z" fill="#ffda1d" stroke="#ffb818"/>
   <path d="m77.296 113.29 4.5849 1.9681-2.8571-10.106z" fill="#ffc65c" stroke="#ffc65c"/>
   <path d="m94.294 103.98 10.76 5.2136-0.26203-2.0531z" fill="#fff26f" stroke="#ffd577"/>
   <path d="m195.57 104.94 1.8342 10.842 2.8966-9.7341z" fill="#fff6cc" stroke="#fff6cc"/>
   <path d="m104.34 107.34 21.014-11.346-5.8833-3.6053z" fill="#ffdb78" stroke="#ffdb78"/>
   <path d="m34.383 109.25 13.045 3.3022 0.37005-4.0082z" fill="#ffc835" stroke="#ffca40"/>
   <path d="m81.667 115.27 13.015-11.381-15.873 1.275z" fill="#ffc75f" stroke="#ffc75f"/>
   <path d="m49.135 105.09 9.4162 12.337-0.75646-18z" fill="#ffd748" stroke="#ffd944"/>
   <path d="m156.33 111.61 8.5855 5.8747 7.5456-12.471z" fill="#ffeaa7" stroke="#fff0ad"/>
   <path d="m104.3 107.23 23.555 4.4556-2.5409-15.801z" fill="#ffdd8c" stroke="#ffdd8c"/>
   <path d="m164.75 117.49 10.115-5.8334-2.5694-6.6374z" fill="#fff0ad" stroke="#fff0ad"/>
   <path d="m-3.8319 112.52 8.1266 5.2313 1.048-11.488z" fill="#ffd415" stroke="#ffc20f"/>
   <path d="m47.441 108.52 11.135 8.825-9.4162-12.337z" fill="#ffd341" stroke="#ffd341"/>
   <path d="m58.34 117.44 5.8171-19.067-6.5735 1.0667z" fill="#ffd748" stroke="#ffd748"/>
   <path d="m58.208 117.44 14.122-11.224-8.3052-7.8425z" fill="#ffd748" stroke="#ffc159"/>
   <path d="m81.625 115.24 10.645 2.4828 2.3706-13.864z" fill="#ffdc68" stroke="#ffc75f"/>
   <path d="m47.076 112.48 11.505 4.8169-11.135-8.825z" fill="#ffd748" stroke="#ffd748"/>
   <path d="m104.56 109.11 23.293 2.4025-23.555-4.4556z" fill="#ffdd8c" stroke="#ffdd8c"/>
   <path d="m204.7 118.71 6.7406-12.63-11.38-0.0945z" fill="#fff7d2" stroke="#fff7d2"/>
   <path d="m104.56 108.98 15.523 9.3634 7.7697-6.9609z" fill="#ffe282" stroke="#ffd577"/>
   <path d="m197.31 115.72 7.5362 2.9905-4.6396-12.725z" fill="#fff6cc" stroke="#fff6cc"/>
   <path d="m91.958 117.72 13.131-8.6503-10.76-5.2136z" fill="#ffd577" stroke="#ffdc68"/>
   <path d="m48.941 117.86 9.6406-0.63163-11.505-4.8169z" fill="#ffd748" stroke="#ffd748"/>
   <path d="m10.828 119.98 3.519-16.958-9.2729 3.2537z" fill="#ffaa1b" stroke="#ffaa1b"/>
   <path d="m4.0925 117.72 6.802 2.216-5.754-13.704z" fill="#ffd415" stroke="#ffd415"/>
   <path d="m164.75 117.34 6.8117 3.7012 3.3033-9.5346z" fill="#ffe8b2" stroke="#fff0ad"/>
   <path d="m189.19 101.96 8.3424 13.864-1.8342-10.842z" fill="#fff6cc" stroke="#fff1c9"/>
   <path d="m194.25 121.31 3.2357-5.7779-4.6597 5.1781z" fill="#fff2c7" stroke="#fff2c7"/>
   <path d="m139.74 100.62 3.1302 19.996 5.715-8.6751z" fill="#ffe497" stroke="#ffe497"/>
   <path d="m127.28 111.48 15.862 9.1403-3.1302-19.996z" fill="#ffe497" stroke="#ffdd8c"/>
   <path d="m7.241 121.85 3.6534-2.1062-6.802-2.216z" fill="#ffb217" stroke="#ffaa1b"/>
   <path d="m189.19 101.88 3.6827 19.042 4.6597-5.1781z" fill="#fff1c9" stroke="#ffefc6"/>
   <path d="m178.41 105.82 14.695 15.109-3.6827-19.042z" fill="#fff2be" stroke="#ffefc6"/>
   <path d="m157.12 122.89 7.9049-5.5831-8.5855-5.8747z" fill="#ffe8a4" stroke="#ffe8a4"/>
   <path d="m130.75 122.91 12.396-2.4876-15.862-9.1403z" fill="#ffe497" stroke="#ffe497"/>
   <path d="m148.33 111.74 9.0289 11.148-0.68058-11.458z" fill="#ffe8a4" stroke="#ffe8a4"/>
   <path d="m119.8 118.24 11.235 4.6669-3.4657-11.628z" fill="#ffe282" stroke="#ffe08b"/>
   <path d="m58.13 117.33 19.518-4.0908-5.3955-7.1332z" fill="#ffd748" stroke="#ffd748"/>
   <path d="m174.45 111.59 18.715 9.276-14.695-15.109z" fill="#fff0b8" stroke="#ffefc6"/>
   <path d="m91.952 117.56 13.514 5.8133-0.38297-14.464z" fill="#ffd772" stroke="#ffd772"/>
   <path d="m105.05 123.37 15.14-5.1002-15.523-9.3634z" fill="#ffd772" stroke="#ffd772"/>
   <path d="m194.12 121.31 10.772-2.7874-7.5362-2.9905z" fill="#fff7d2" stroke="#fff7d2"/>
   <path d="m10.439 119.98 24.497-10.767-20.978-6.1911z" fill="#ffaa1b" stroke="#ffc835"/>
   <path d="m142.7 120.42 14.744 2.4734-9.0289-11.148z" fill="#ffe8a4" stroke="#ffe8a4"/>
   <path d="m194.11 121.23 11.072 2.5501-0.29998-5.3375z" fill="#fff3d0" stroke="#fff2c7"/>
   <path d="m34.361 109.16 14.91 8.7507-1.8644-5.4485z" fill="#ffc53f" stroke="#ffc53f"/>
   <path d="m171.19 121.04 22.018-0.25856-18.715-9.276z" fill="#ffefc6" stroke="#ffefc6"/>
   <path d="m157.01 122.81 14.717-1.8819-6.8117-3.7012z" fill="#ffe8a4" stroke="#ffe8b2"/>
   <path d="m217.46 97.473 2.8966-39.896-2.3026 5.6821z" fill="#fefff6" stroke="#fefff6"/>
   <path d="m204.93 123.97 6.4406-17.968-6.7406 12.63z" fill="#fff9dc" stroke="#fff3d0"/>
   <path d="m-3.8625 112.37 11.275 9.5535-3.1486-4.3222z" fill="#ffc20f" stroke="#ffb217"/>
   <path d="m58.063 117.23 24.103-2.1227-4.5849-1.9681z" fill="#ffc75f" stroke="#ffc75f"/>
   <path d="m10.222 119.89 39.406-2.0165-14.91-8.7506z" fill="#ffaa1b" stroke="#ffaa1b"/>
   <path d="m104.89 123.23 26.375-0.43328-11.235-4.667z" fill="#ffe08b" stroke="#ffd772"/>
   <path d="m171.17 120.9 23.442 0.34118-1.424-0.59974z" fill="#fff2c7" stroke="#fff2c7"/>
   <path d="m130.48 122.78 27.14-0.0142-14.744-2.4734z" fill="#ffe08b" stroke="#ffe08b"/>
   <path d="m204.84 124.11 12.859-27.618-6.4181 9.6508z" fill="#fff9e6" stroke="#fff9e6"/>
   <path d="m6.6213 121.84 43.06-4.1227-39.406 2.0165z" fill="#ffc53f" stroke="#ffb217"/>
   <path d="m57.908 117.19 34.747 0.36009-10.645-2.4828z" fill="#ffdc68" stroke="#ffd748"/>
   <path d="m57.711 117.08 48.261 6.1734-13.514-5.8133z" fill="#ffd748" stroke="#ffd748"/>
   <path d="m171.01 120.86 34.514 2.8913-11.072-2.5501z" fill="#ffe8b2" stroke="#ffe8b2"/>
   <path d="m156.51 122.74 49.231 1.0094-34.514-2.8913z" fill="#fff3d0" stroke="#ffe8a4"/>
   <path d="m48.211 117.71 57.902 5.5418-48.261-6.1734z" fill="#ffc53f" stroke="#ffc53f"/>
   <path d="m5.7781 121.82 100.96 1.4191-57.902-5.5418z" fill="#ffd772" stroke="#ffd772"/>
   <path d="m-5.0009 59.771-0.18341 27.566 0.20835-15.74z" fill="#ffa821" stroke="#ffb818"/>
   <path d="m104.49 123.17 53.516-0.44746-27.14 0.0142z" fill="#ffd772" stroke="#ffe8a4"/>
   <path d="m103.77 123.16 102.75 0.56197-49.231-1.0094z" fill="#ffd772" stroke="#fff3d0"/>
  </g>
 </g>
</svg>
