<?xml version="1.0" encoding="UTF-8" standalone="no"?>
<svg
   version="1.0"
   width="1373.017pt"
   height="1252.1326pt"
   viewBox="0 0 1373.017 1252.1326"
   preserveAspectRatio="xMidYMid"
   id="svg1"
   sodipodi:docname="crow-favicon.svg"
   inkscape:version="1.3 (0e150ed6c4, 2023-07-21)"
   xmlns:inkscape="http://www.inkscape.org/namespaces/inkscape"
   xmlns:sodipodi="http://sodipodi.sourceforge.net/DTD/sodipodi-0.dtd"
   xmlns="http://www.w3.org/2000/svg"
   xmlns:svg="http://www.w3.org/2000/svg">
  <defs
     id="defs1" />
  <sodipodi:namedview
     id="namedview1"
     pagecolor="#ffffff"
     bordercolor="#666666"
     borderopacity="1.0"
     inkscape:showpageshadow="2"
     inkscape:pageopacity="0.0"
     inkscape:pagecheckerboard="0"
     inkscape:deskcolor="#d1d1d1"
     inkscape:document-units="pt"
     inkscape:zoom="0.37591855"
     inkscape:cx="986.91591"
     inkscape:cy="864.54898"
     inkscape:window-width="1920"
     inkscape:window-height="1022"
     inkscape:window-x="1920"
     inkscape:window-y="625"
     inkscape:window-maximized="1"
     inkscape:current-layer="svg1" />
  <metadata
     id="metadata1">&#10;Created by potrace 1.15, written by Peter Selinger 2001-2017&#10;</metadata>
  <g
     transform="matrix(0.1,0,0,-0.1,46.030679,1202.3004)"
     fill="currentColor"
     stroke="none"
     id="g1"
     style="stroke:#ffffff;stroke-width:999.99999998;stroke-dasharray:none;paint-order:stroke fill markers">
    <path
       d="m 9610,11513 c -240,-36 -379,-77 -565,-168 -127,-62 -257,-142 -342,-212 -55,-44 -92,-118 -103,-207 -9,-69 -9,-71 -69,-126 -64,-58 -80,-94 -61,-130 10,-19 5,-29 -48,-93 -67,-82 -86,-116 -96,-170 -4,-20 -20,-52 -35,-70 -42,-49 -53,-73 -45,-112 5,-28 -2,-49 -43,-127 -95,-183 -386,-597 -451,-641 -21,-15 -91,-50 -155,-77 -357,-150 -608,-293 -882,-501 -132,-100 -230,-186 -514,-455 -87,-83 -243,-222 -345,-308 -258,-219 -387,-338 -486,-452 -111,-127 -105,-122 -400,-350 -747,-578 -1345,-1106 -1704,-1504 -184,-204 -431,-492 -445,-519 -11,-19 -11,-31 -1,-61 12,-36 11,-38 -57,-141 -59,-88 -193,-301 -271,-430 -21,-34 -32,-129 -16,-129 26,0 91,62 196,187 67,80 124,141 126,135 7,-23 -29,-296 -46,-340 -23,-60 -52,-105 -138,-214 -38,-47 -100,-137 -138,-200 -66,-108 -83,-128 -435,-478 -490,-488 -852,-821 -1231,-1132 -58,-47 -117,-97 -132,-111 -34,-31 -37,-76 -8,-102 11,-10 20,-21 20,-25 0,-3 -121,-119 -268,-258 C 115,1705 70,1659 70,1630 c 0,-59 61,-109 117,-96 16,4 72,28 125,53 54,26 101,44 104,40 3,-3 -42,-59 -100,-123 -59,-65 -105,-122 -103,-128 3,-7 33,-10 83,-7 90,4 90,13 -5,-97 -49,-57 -53,-64 -39,-79 15,-14 38,-4 265,109 224,113 538,285 668,366 55,34 75,33 47,-3 C 1221,1652 955,1372 641,1042 326,713 59,429 48,411 23,372 32,348 84,312 c 61,-42 121,-25 326,92 68,38 116,60 118,53 1,-7 -9,-39 -22,-72 -28,-67 -24,-75 36,-76 38,-2 101,22 229,87 75,37 99,45 127,40 20,-3 39,-9 44,-14 5,-5 -4,-36 -22,-73 -16,-35 -30,-74 -30,-87 0,-28 42,-46 85,-38 58,12 192,86 298,166 59,44 109,80 111,80 3,0 2,-25 -1,-56 l -6,-56 24,12 c 13,8 173,160 354,339 414,409 1160,1129 1283,1238 137,124 280,226 771,555 285,191 447,294 449,285 2,-7 18,-21 37,-30 l 34,-16 161,122 c 231,175 244,182 343,195 53,7 122,26 192,54 133,51 179,54 255,12 61,-33 129,-106 161,-170 13,-28 29,-94 40,-172 l 18,-127 88,-85 C 6131,2047 6645,1568 6677,1555 l 37,-16 -107,-70 c -84,-55 -115,-82 -142,-122 -51,-78 -76,-164 -76,-263 0,-169 52,-262 170,-302 34,-12 141,-17 141,-7 0,3 -16,38 -36,78 -42,83 -74,170 -74,202 0,40 33,58 92,51 29,-4 87,-9 128,-12 41,-3 85,-7 97,-10 38,-7 82,-53 119,-125 41,-77 99,-134 153,-149 20,-6 65,-13 101,-17 36,-3 73,-12 82,-20 9,-9 29,-51 44,-95 21,-63 39,-95 87,-151 97,-116 102,-133 100,-324 -2,-177 0,-182 51,-142 54,43 103,180 115,321 12,150 -11,244 -78,321 -18,20 -50,71 -71,114 -30,62 -35,81 -26,95 8,14 19,17 46,12 83,-14 112,-26 143,-60 48,-53 79,-65 191,-73 173,-13 214,-48 321,-275 46,-98 72,-143 81,-139 32,12 59,180 44,284 -17,120 -99,283 -179,353 -46,41 -31,42 109,9 82,-19 105,-34 130,-84 29,-56 81,-78 180,-79 89,0 133,-22 156,-75 20,-49 18,-95 -11,-213 -28,-115 -30,-142 -13,-142 20,0 87,80 121,143 l 32,62 -1,154 -1,154 197,-5 c 121,-3 205,-10 218,-17 12,-7 45,-32 72,-56 62,-55 96,-62 180,-36 142,45 204,14 250,-124 12,-36 25,-67 30,-70 4,-2 18,19 30,47 19,43 22,65 18,128 -5,86 -30,144 -87,203 -51,55 -73,64 -233,97 -190,41 -206,45 -290,85 -49,24 -87,35 -117,35 -77,0 -174,21 -240,52 -102,48 -183,133 -260,273 -68,122 -113,167 -391,391 -185,149 -420,377 -682,660 -175,189 -184,201 -199,270 -15,65 -2,94 42,94 21,0 43,12 77,44 26,24 72,56 102,72 49,25 65,29 150,29 52,0 100,3 106,7 17,11 157,186 202,253 22,33 62,101 88,151 60,112 77,132 185,216 47,37 178,156 290,266 187,182 208,200 248,207 41,7 59,22 246,214 112,113 247,258 302,322 245,284 448,588 575,860 54,116 202,355 228,369 10,5 28,10 39,10 15,0 28,15 47,53 15,28 50,90 78,137 29,47 58,108 65,135 23,90 117,266 207,385 47,63 96,135 108,160 30,58 63,162 71,223 6,48 72,222 115,307 19,37 24,70 32,210 17,289 -15,582 -93,864 -22,78 -55,202 -74,276 -20,74 -52,189 -72,255 -74,243 -44,407 122,659 69,105 298,390 334,415 51,36 452,191 958,370 533,188 543,193 559,256 22,90 -135,260 -331,357 -170,85 -205,91 -975,163 -605,57 -724,79 -934,170 -178,77 -287,105 -475,124 -96,10 -385,13 -441,4 z M 6905,2761 c 42,-19 104,-73 565,-495 494,-452 522,-481 622,-632 78,-119 85,-137 64,-169 -20,-30 -58,-32 -154,-10 -114,27 -215,74 -402,185 -202,121 -264,146 -347,137 -54,-6 -172,-54 -205,-84 -9,-8 -22,-12 -27,-8 -6,3 -133,146 -282,317 l -271,311 6,41 c 16,106 44,255 50,264 8,13 248,141 285,152 40,12 52,11 96,-9 z m 477,-1297 c -9,-13 -23,-26 -31,-29 -14,-5 -121,60 -121,74 0,3 17,20 37,38 l 38,32 47,-46 c 46,-45 46,-46 30,-69 z"
       id="path1"
       style="stroke:#ffffff;stroke-width:999.99999998;stroke-dasharray:none;paint-order:stroke fill markers" />
  </g>
</svg>
